<svg xmlns="http://www.w3.org/2000/svg" xmlns:xlink="http://www.w3.org/1999/xlink" id="englisch" viewBox="0 0 345.19138 224.8479">
    <defs>
        <style>.cls-1{fill:none;stroke:#181715;stroke-width:0.3px;stroke-dasharray:3 3;}</style>
    </defs>
    <image width="3840" height="2160" transform="translate(0.05759 -0.13621) scale(0.08987)" xlink:href="hdv/hdv_blau.png"/>

    <path d="M102.693,211.95144v1.91162a2.43008,2.43008,0,0,1-1.47168.45557c-1.24609,0-1.98144-.89648-1.98144-2.4165,0-1.47754.73535-2.40918,1.90527-2.40918a1.3938,1.3938,0,0,1,1.48438,1.2959h-.39258a1.051,1.051,0,0,0-1.10645-.939c-.90332,0-1.457.77783-1.457,2.04541a2.35515,2.35515,0,0,0,.56738,1.71582,1.31867,1.31867,0,0,0,.97364.3501,2.14382,2.14382,0,0,0,1.09277-.30127v-1.33057h-.95215v-.37793Z"/>
    <path d="M103.87362,212.62381c.0205.89648.37109,1.37256,1.00879,1.37256a.82726.82726,0,0,0,.8125-.54639l.35644.063a1.1598,1.1598,0,0,1-1.16894.8125c-.86231,0-1.39454-.64453-1.39454-1.70166,0-1.08594.53223-1.78614,1.35938-1.78614.78418,0,1.28809.65137,1.28809,1.65967v.12647Zm1.87011-.30127c-.042-.72852-.3789-1.15576-.91113-1.15576-.52441,0-.86816.42041-.95215,1.15576Z"/>
    <path d="M106.93221,211.75515c.06348-.59521.47656-.91748,1.17676-.91748a.99865.99865,0,0,1,1.0293.56006,2.21589,2.21589,0,0,1,.06347.71485V213.324a2.46759,2.46759,0,0,0,.084.91748h-.36426a2.06866,2.06866,0,0,1-.084-.46924,1.0284,1.0284,0,0,1-.98046.55323.94021.94021,0,0,1-1.03711-.95264c0-.72119.53222-1.06445,2.01757-1.28857v-.17481c0-.53955-.20312-.74267-.73535-.74267-.46191,0-.72168.189-.792.58837Zm1.90527.61622c-1.21191.23828-1.63183.49755-1.63183.99462a.62687.62687,0,0,0,.68652.63038.89119.89119,0,0,0,.78418-.42041,1.55621,1.55621,0,0,0,.16113-.82618Z"/>
    <path d="M110.53768,210.92849a2.575,2.575,0,0,1,.05566.5044c0,.04932,0,.11914-.00683.21.22461-.56006.4834-.80518.84082-.80518a1.0365,1.0365,0,0,1,.4414.11182v.36426a.988.988,0,0,0-.42773-.11914.82465.82465,0,0,0-.665.55371,2.39628,2.39628,0,0,0-.16113,1.0293v1.46386h-.3711v-2.1289a7.74048,7.74048,0,0,0-.04882-1.18409Z"/>
    <path d="M113.74471,212.32937v.30127h-1.9541v-.30127Z"/>
    <path d="M102.31307,217.55594v1.87011a1.05978,1.05978,0,0,1,.9668-.58838c.76269,0,1.26757.68653,1.26757,1.73,0,1.05762-.51855,1.75782-1.30957,1.75782a.98126.98126,0,0,1-.9248-.56006v.09765a1.40693,1.40693,0,0,1-.05664.37842h-.37793a3.2496,3.2496,0,0,0,.07031-.95947v-3.72607Zm-.00684,3.04687c0,.833.37793,1.39356.93848,1.39356.55957,0,.92383-.55323.92383-1.42188,0-.85449-.34961-1.40771-.88184-1.40771C102.691,219.16678,102.30623,219.73416,102.30623,220.60281Z"/>
    <path d="M107.99764,220.58865c0,1.03662-.55957,1.73682-1.38672,1.73682-.83984,0-1.38672-.7002-1.38672-1.76465,0-1.01563.56739-1.72315,1.38672-1.72315C107.43807,218.83767,107.99764,219.54519,107.99764,220.58865Zm-2.39453-.021c0,.86817.39941,1.42872,1.00781,1.42872.60254,0,1.00879-.56739,1.00879-1.40772,0-.84766-.40625-1.42187-1.00879-1.42187C106.01619,219.16678,105.60311,219.741,105.60311,220.56765Z"/>
    <path d="M108.86483,218.92849l.833,1.26807.84082-1.26807h.44824l-1.06446,1.55518,1.19043,1.75781h-.4414l-.97363-1.46386-.99415,1.46386h-.43457l1.20508-1.75781-1.02929-1.55518Z"/>
    <line class="cls-1" x1="108.29247" y1="101.8661" x2="108.29247" y2="207.63791"/>

    <path d="M185.68416,205.83621v-2.05908h.39844v4.67138h-.39844v-2.2832h-2.30468v2.2832H182.981v-4.67138h.39844v2.05908Z"/>
    <path d="M187.72713,204.03592a.30038.30038,0,0,1-.30859.30127.29631.29631,0,0,1-.3086-.30127.30791.30791,0,0,1,.3086-.315A.30383.30383,0,0,1,187.72713,204.03592Zm-.10547,1.09961v3.313h-.39843v-3.313Z"/>
    <path d="M191.26229,205.43l-.67774-.021a1.05141,1.05141,0,0,1,.32813.8125.94645.94645,0,0,1-.30078.74219,1.7882,1.7882,0,0,1-.791.31543c-.5039.13281-.69336.23779-.69336.40625,0,.13965.084.168.64453.22412a2.4458,2.4458,0,0,1,1.05079.2168.821.821,0,0,1,.44726.75635c0,.6167-.56055,1.00146-1.457,1.00146-.86719,0-1.43555-.37793-1.43555-.95947,0-.39893.2168-.65137.707-.82617-.24414-.09131-.34961-.20313-.34961-.37842,0-.231.16016-.3711.59571-.53906a.93337.93337,0,0,1-.69336-.95948,1.07748,1.07748,0,0,1,1.16992-1.11377,1.88888,1.88888,0,0,1,.47461.063l.98047-.03515Zm-2.53516,3.481c0,.38525.42774.6372,1.08594.6372.67969,0,1.09375-.24511,1.09375-.6372,0-.40625-.37891-.62354-1.09375-.62354C189.12752,208.28738,188.72713,208.51834,188.72713,208.91092Zm.29492-2.69678a.71564.71564,0,0,0,.76368.74267.70116.70116,0,0,0,.75-.74267.74228.74228,0,0,0-.72852-.79834A.75771.75771,0,0,0,189.02205,206.21414Z"/>
    <path d="M192.31307,203.763v1.76513a1.06471,1.06471,0,0,1,.95117-.48339,1.01256,1.01256,0,0,1,.88281.42041c.13282.20312.16211.39209.16211,1.08544v1.898h-.36523v-1.92627a1.62056,1.62056,0,0,0-.09766-.812.6492.6492,0,0,0-.61718-.33642.8576.8576,0,0,0-.74805.40625,1.53957,1.53957,0,0,0-.168.80566v1.86279h-.36523V203.763Z"/>

    <path d="M196.77205,206.5364v.30127H194.817v-.30127Z"/>
    <path d="M178.2076,213.10232a3.28179,3.28179,0,0,0-.07031-.96679h.37695a1.69865,1.69865,0,0,1,.06445.51855.98714.98714,0,0,1,.95118-.61621c.75781,0,1.26757.71435,1.26757,1.772,0,1.0503-.48242,1.72266-1.23828,1.72266a1.08314,1.08314,0,0,1-.98047-.56738v1.86328h-.37109Zm.35742.68653c0,.833.39063,1.41455.959,1.41455.5664,0,.89648-.51123.89648-1.39356,0-.87549-.35742-1.44287-.89648-1.44287C178.95565,212.367,178.565,212.95535,178.565,213.78885Z"/>
    <path d="M181.95955,212.13553a2.57114,2.57114,0,0,1,.05469.50439c0,.04932,0,.11914-.00586.21.22461-.56006.48242-.80517.83985-.80517a1.033,1.033,0,0,1,.4414.11181v.36426a.97787.97787,0,0,0-.42773-.11914.82225.82225,0,0,0-.66406.55371,2.37865,2.37865,0,0,0-.16211,1.0293v1.46386h-.3711v-2.12939a7.60656,7.60656,0,0,0-.04883-1.18359Z"/>
    <path d="M184.05916,213.83084c.01953.89648.3711,1.37256,1.00782,1.37256a.82726.82726,0,0,0,.8125-.54639l.35742.063a1.1602,1.1602,0,0,1-1.16992.8125c-.86133,0-1.39454-.644-1.39454-1.70166,0-1.08594.53321-1.78613,1.35938-1.78613.78516,0,1.28906.65136,1.28906,1.65966v.12647Zm1.86914-.30127c-.041-.72852-.3789-1.15576-.91015-1.15576-.52539,0-.86914.42041-.95313,1.15576Z"/>
    <path d="M188.88924,213.01834a.641.641,0,0,0-.72851-.64453c-.41211,0-.69336.22412-.69336.55322,0,.29443.15429.41357.76367.59521a1.78339,1.78339,0,0,1,.88281.40625.83479.83479,0,0,1,.20313.58838,1.015,1.015,0,0,1-1.14844,1.01563c-.76367,0-1.1836-.38526-1.1836-1.07861h.35743a.74156.74156,0,0,0,.82617.74951c.46094,0,.76367-.25928.76367-.64453a.51126.51126,0,0,0-.20312-.43409,2.56537,2.56537,0,0,0-.76368-.28027c-.63867-.1958-.87695-.44824-.87695-.90332,0-.53223.44141-.89648,1.08008-.89648a.95.95,0,0,1,1.07812.97363Z"/>
    <path d="M191.85018,213.01834a.641.641,0,0,0-.72852-.64453c-.41211,0-.69336.22412-.69336.55322,0,.29443.1543.41357.76368.59521a1.78344,1.78344,0,0,1,.88281.40625.83479.83479,0,0,1,.20312.58838,1.015,1.015,0,0,1-1.14843,1.01563c-.76368,0-1.1836-.38526-1.1836-1.07861h.35742a.74157.74157,0,0,0,.82618.74951c.46093,0,.76367-.25928.76367-.64453a.51124.51124,0,0,0-.20313-.43409,2.56506,2.56506,0,0,0-.76367-.28027c-.63867-.1958-.877-.44824-.877-.90332,0-.53223.4414-.89648,1.08008-.89648a.95.95,0,0,1,1.07812.97363Z"/>
    <path d="M193.45955,212.13553v2.0664a1.29238,1.29238,0,0,0,.11133.70752.69461.69461,0,0,0,.60938.29395.79811.79811,0,0,0,.709-.39209,1.33178,1.33178,0,0,0,.16016-.77051v-1.90527h.36328v2.31152a2.484,2.484,0,0,0,.07812,1.00146h-.37109a1.412,1.412,0,0,1-.07031-.46923.86627.86627,0,0,1-.875.55322,1.051,1.051,0,0,1-.95313-.5044,1.63024,1.63024,0,0,1-.125-.84033v-2.05224Z"/>
    <path d="M196.74862,212.13553a2.5793,2.5793,0,0,1,.05664.50439c0,.04932,0,.11914-.00782.21.22461-.56006.48438-.80517.8418-.80517a1.04009,1.04009,0,0,1,.44141.11181v.36426a.98422.98422,0,0,0-.42774-.11914.827.827,0,0,0-.666.55371,2.41386,2.41386,0,0,0-.16016,1.0293v1.46386h-.37109v-2.12939a7.86885,7.86885,0,0,0-.04883-1.18359Z"/>
    <path d="M198.85018,213.83084c.01953.89648.37109,1.37256,1.00781,1.37256a.82724.82724,0,0,0,.8125-.54639l.35742.063a1.16019,1.16019,0,0,1-1.16992.8125c-.86133,0-1.39453-.644-1.39453-1.70166,0-1.08594.5332-1.78613,1.35938-1.78613.78515,0,1.28906.65136,1.28906,1.65966v.12647Zm1.86914-.30127c-.041-.72852-.37891-1.15576-.91016-1.15576-.52539,0-.86914.42041-.95312,1.15576Z"/>
    <path d="M175.88729,220.2073c-.084-.53906-.3711-.83349-.8125-.83349-.5957,0-.99414.56738-.99414,1.42187s.39844,1.40772,1.00781,1.40772c.4707,0,.76367-.31494.82031-.87549h.37891c-.07813.77734-.49024,1.20459-1.17774,1.20459-.86132,0-1.4082-.67236-1.4082-1.73s.55469-1.75781,1.38086-1.75781a1.13507,1.13507,0,0,1,1.16992,1.16259Z"/>
    <path d="M179.74471,220.79568c0,1.03662-.56055,1.73682-1.38672,1.73682-.83984,0-1.38672-.7002-1.38672-1.76514,0-1.01514.56641-1.72265,1.38672-1.72265C179.18416,219.04471,179.74471,219.75222,179.74471,220.79568Zm-2.39453-.021c0,.86816.39844,1.42871,1.00781,1.42871.60156,0,1.00781-.56739,1.00781-1.40772,0-.84765-.40625-1.42187-1.00781-1.42187C177.76229,219.37381,177.35018,219.948,177.35018,220.77469Z"/>
    <path d="M180.88534,219.13553a1.446,1.446,0,0,1,.0625.4624.95449.95449,0,0,1,.94531-.55322.84057.84057,0,0,1,.90429.58837,1.03436,1.03436,0,0,1,1.00782-.58837.92027.92027,0,0,1,.82617.39941c.11133.189.13281.3291.13281.93848v2.06591H184.401V220.3826c0-.46924-.01367-.57471-.0918-.72168a.62762.62762,0,0,0-.5957-.28711.78678.78678,0,0,0-.707.39209,1.3942,1.3942,0,0,0-.13281.69336v1.98925h-.3711v-1.98925a1.82225,1.82225,0,0,0-.07031-.74219.60428.60428,0,0,0-.60156-.34326.81846.81846,0,0,0-.69336.35742,1.30111,1.30111,0,0,0-.168.75635v1.96093h-.36523v-2.20605c0-.41357-.00586-.66553-.01368-.74951a1.96792,1.96792,0,0,0-.0625-.35742Z"/>
    <path d="M185.77791,220.10232a3.28179,3.28179,0,0,0-.07031-.96679h.37695a1.69856,1.69856,0,0,1,.06446.51855.98713.98713,0,0,1,.95117-.61621c.75781,0,1.26758.71435,1.26758,1.772,0,1.0503-.48242,1.72266-1.23828,1.72266a1.08313,1.08313,0,0,1-.98047-.56738v1.86328h-.3711Zm.35743.68653c0,.833.39062,1.41455.959,1.41455.56641,0,.89648-.51123.89648-1.39356,0-.87549-.35742-1.44287-.89648-1.44287C186.526,219.367,186.13534,219.95535,186.13534,220.78885Z"/>
    <path d="M189.52987,219.13553a2.57187,2.57187,0,0,1,.05468.50439c0,.04932,0,.11914-.00586.21.22461-.56006.48243-.80517.83985-.80517a1.033,1.033,0,0,1,.4414.11181v.36426a.97784.97784,0,0,0-.42773-.11914.82226.82226,0,0,0-.66406.55371,2.37881,2.37881,0,0,0-.16211,1.0293v1.46386h-.3711v-2.12939a7.607,7.607,0,0,0-.04882-1.18359Z"/>
    <path d="M191.62948,220.83084c.01953.89648.37109,1.37256,1.00781,1.37256a.82726.82726,0,0,0,.8125-.54639l.35742.063a1.16019,1.16019,0,0,1-1.16992.8125c-.86133,0-1.39453-.644-1.39453-1.70166,0-1.08594.5332-1.78613,1.35937-1.78613.78516,0,1.28906.65136,1.28906,1.65966v.12647Zm1.86914-.30127c-.041-.72852-.37891-1.15576-.91016-1.15576-.52539,0-.86914.42041-.95312,1.15576Z"/>
    <path d="M196.45955,220.01834a.641.641,0,0,0-.72851-.64453c-.41211,0-.69336.22412-.69336.55322,0,.29443.1543.41357.76367.59521a1.78339,1.78339,0,0,1,.88281.40625.83475.83475,0,0,1,.20313.58838,1.015,1.015,0,0,1-1.14844,1.01563c-.76367,0-1.18359-.38526-1.18359-1.07861h.35742a.74157.74157,0,0,0,.82617.74951c.46094,0,.76367-.25928.76367-.64453a.51126.51126,0,0,0-.20312-.43409,2.56522,2.56522,0,0,0-.76367-.28027c-.63868-.1958-.877-.44824-.877-.90332,0-.53223.44141-.89648,1.08008-.89648a.95006.95006,0,0,1,1.07813.97363Z"/>
    <path d="M199.42049,220.01834a.641.641,0,0,0-.72851-.64453c-.41211,0-.69336.22412-.69336.55322,0,.29443.15429.41357.76367.59521a1.78339,1.78339,0,0,1,.88281.40625.83479.83479,0,0,1,.20313.58838,1.015,1.015,0,0,1-1.14844,1.01563c-.76367,0-1.1836-.38526-1.1836-1.07861h.35743a.74156.74156,0,0,0,.82617.74951c.46094,0,.76367-.25928.76367-.64453a.51126.51126,0,0,0-.20312-.43409,2.56537,2.56537,0,0,0-.76368-.28027c-.63867-.1958-.87695-.44824-.87695-.90332,0-.53223.44141-.89648,1.08008-.89648a.95.95,0,0,1,1.07812.97363Z"/>
    <path d="M203.2701,220.79568c0,1.03662-.55859,1.73682-1.38672,1.73682-.83984,0-1.38672-.7002-1.38672-1.76514,0-1.01514.56836-1.72265,1.38672-1.72265C202.71151,219.04471,203.2701,219.75222,203.2701,220.79568Zm-2.39453-.021c0,.86816.39844,1.42871,1.00781,1.42871.60352,0,1.00977-.56739,1.00977-1.40772,0-.84765-.40625-1.42187-1.00977-1.42187C201.28963,219.37381,200.87557,219.948,200.87557,220.77469Z"/>
    <path d="M204.4244,219.13553a2.5793,2.5793,0,0,1,.05664.50439c0,.04932,0,.11914-.00781.21.22461-.56006.48437-.80517.84179-.80517a1.04009,1.04009,0,0,1,.44141.11181v.36426a.98419.98419,0,0,0-.42774-.11914.827.827,0,0,0-.666.55371,2.41386,2.41386,0,0,0-.16016,1.0293v1.46386h-.37109v-2.12939a7.86885,7.86885,0,0,0-.04883-1.18359Z"/>
    <line class="cls-1" x1="188.56821" y1="101.8661" x2="188.56821" y2="201.65218"/>
    <line class="cls-1" x1="82.87817" y1="101.8661" x2="82.87817" y2="207.63791"/>
    <path d="M80.82577,211.65017v.3501H78.92049v2.24121h-.39941V209.5701h2.44433v.35009H78.92049v1.73Z"/>
    <path d="M81.6285,211.75515c.06348-.59521.47656-.91748,1.17676-.91748a.99862.99862,0,0,1,1.02929.56006,2.2155,2.2155,0,0,1,.06348.71485V213.324a2.46759,2.46759,0,0,0,.084.91748h-.36426a2.06866,2.06866,0,0,1-.084-.46924,1.0284,1.0284,0,0,1-.98047.55323.94021.94021,0,0,1-1.03711-.95264c0-.72119.53223-1.06445,2.01758-1.28857v-.17481c0-.53955-.20312-.74267-.73535-.74267-.46191,0-.72168.189-.792.58837Zm1.90527.61622c-1.21191.23828-1.63183.49755-1.63183.99462a.62686.62686,0,0,0,.68652.63038.89119.89119,0,0,0,.78418-.42041,1.55631,1.55631,0,0,0,.16113-.82618Z"/>
    <path d="M85.2203,210.92849a1.39215,1.39215,0,0,1,.0625.49756,1.08808,1.08808,0,0,1,1.01562-.58838.93521.93521,0,0,1,.96.56006,2.2979,2.2979,0,0,1,.084.9458v1.898h-.36426v-1.92627a1.71016,1.71016,0,0,0-.09082-.80517.62276.62276,0,0,0-.61621-.34326.937.937,0,0,0-.77832.40625,1.30076,1.30076,0,0,0-.18848.76318v1.90527H84.94v-2.20605a3.32846,3.32846,0,0,0-.07715-1.10694Z"/>
    <path d="M77.12069,218.92849a2.57575,2.57575,0,0,1,.05566.5044c0,.04932,0,.11914-.00683.21.2246-.56006.48339-.80518.84082-.80518a1.03654,1.03654,0,0,1,.4414.11182v.36426a.988.988,0,0,0-.42773-.11914.82464.82464,0,0,0-.665.55371,2.39612,2.39612,0,0,0-.16113,1.0293v1.46386h-.3711v-2.1289a7.73873,7.73873,0,0,0-.04883-1.18409Z"/>
    <path d="M81.60116,220.58865c0,1.03662-.55957,1.73682-1.38672,1.73682-.83985,0-1.38672-.7002-1.38672-1.76465,0-1.01563.56738-1.72315,1.38672-1.72315C81.04159,218.83767,81.60116,219.54519,81.60116,220.58865Zm-2.39454-.021c0,.86817.39942,1.42872,1.00782,1.42872.60254,0,1.00879-.56739,1.00879-1.40772,0-.84766-.40625-1.42187-1.00879-1.42187C79.61971,219.16678,79.20662,219.741,79.20662,220.56765Z"/>
    <path d="M83.75057,218.92849v.30127h-.833l-.03515,1.814c-.00684.33642-.00684.33642-.00684.37842,0,.44824.07715.56738.38477.56738a1.17961,1.17961,0,0,0,.47656-.11231v.33643a1.61915,1.61915,0,0,1-.53906.09082c-.50489,0-.708-.189-.708-.66553,0-.063.00781-.22412.01465-.35009s.00683-.2168.00683-.26612l.042-1.793h-.49707v-.30127h.50391l.01465-.95947h.36328l-.01367.95947Z"/>
    <path d="M86.94979,220.58865c0,1.03662-.55957,1.73682-1.38672,1.73682-.83984,0-1.38672-.7002-1.38672-1.76465,0-1.01563.56738-1.72315,1.38672-1.72315C86.39022,218.83767,86.94979,219.54519,86.94979,220.58865Zm-2.39453-.021c0,.86817.39843,1.42872,1.00781,1.42872.60254,0,1.00879-.56739,1.00879-1.40772,0-.84766-.40625-1.42187-1.00879-1.42187C84.96834,219.16678,84.55526,219.741,84.55526,220.56765Z"/>
    <path d="M88.10409,218.92849a2.57575,2.57575,0,0,1,.05566.5044c0,.04932,0,.11914-.00684.21.22461-.56006.4834-.80518.84082-.80518a1.03654,1.03654,0,0,1,.44141.11182v.36426a.988.988,0,0,0-.42773-.11914.82464.82464,0,0,0-.665.55371,2.3961,2.3961,0,0,0-.16114,1.0293v1.46386h-.37109v-2.1289a7.74007,7.74007,0,0,0-.04883-1.18409Z"/>

</svg>